<?xml version="1.0" encoding="UTF-8" standalone="no"?>
<!DOCTYPE svg PUBLIC "-//W3C//DTD SVG 1.1//EN" "http://www.w3.org/Graphics/SVG/1.1/DTD/svg11.dtd">
<svg version="1.1" xmlns="http://www.w3.org/2000/svg" xmlns:xlink="http://www.w3.org/1999/xlink" preserveAspectRatio="xMidYMid meet" viewBox="0 0 230 320" width="230" height="320"><defs><path d="M220.38 10.99L220.38 22.87L220.38 33.76L220.38 44.65L220.38 56.53L220.38 67.43L219.39 79.31L219.39 91.19L219.39 104.06L218.4 115.94L218.4 127.82L218.4 138.71L218.4 149.6L218.4 161.49L218.4 172.38L219.39 183.27L219.39 194.16L219.39 207.03L219.39 217.92L218.4 228.81L218.4 239.7L218.4 250.59L217.41 261.49L216.42 273.37L216.42 284.26L217.41 295.15L219.39 305.05" id="b3gC7SecjN"></path><path d="M13.45 10.99L13.45 22.87L13.45 33.76L13.45 44.65L13.45 56.53L13.45 67.43L12.46 79.31L12.46 91.19L12.46 104.06L11.47 115.94L11.47 127.82L11.47 138.71L11.47 149.6L11.47 161.49L11.47 172.38L12.46 183.27L12.46 194.16L12.46 207.03L12.46 217.92L11.47 228.81L11.47 239.7L11.47 250.59L10.48 261.49L9.49 273.37L9.49 284.26L10.48 295.15L12.46 305.05" id="dwF9YuYv0"></path><path d="M11.6 11.98L23.48 11.98L34.37 12.97L47.24 12.97L59.12 13.96L72 13.96L82.89 12.97L94.77 12.97L105.66 11.98L116.55 10.99L129.42 10.99L141.3 10.99L153.18 11.98L165.06 13.96L175.96 14.95L186.85 14.95L197.74 13.96L209.62 12.97L220.51 11.98" id="b798M0Vaf"></path><path d="M11.21 306.04L23.1 306.04L33.99 307.03L46.87 307.03L58.75 308.02L71.63 308.02L82.52 307.03L94.41 307.03L105.3 306.04L116.2 305.05L129.08 305.05L140.96 305.05L152.85 306.04L164.73 308.02L175.63 309.01L186.52 309.01L197.42 308.02L209.3 307.03L220.2 306.04" id="k2pwMSbwN"></path><path d="M13.45 221.59L33.85 221.59L54.25 221.59L74.65 221.59L96.25 221.59L117.85 222.25L138.26 222.91L158.66 223.57L177.86 225.55L198.26 224.89L218.66 224.89" id="ebqyDi9ab"></path><path d="M115.6 220.58L115.6 210.4L116.52 199.28L116.52 188.17L117.45 177.99L118.38 167.8L118.38 156.69L118.38 146.51L118.38 136.32L118.38 126.14L118.38 115.95L118.38 105.77L117.45 95.58L117.45 84.47L118.38 74.28L118.38 64.1L118.38 53.91L118.38 42.8L118.38 32.62L118.38 22.43L117.45 12.25" id="auhtw5cr4"></path><path d="M126.25 78.91L136.43 78.91" id="b4D3O2ybZy"></path><path d="M135.97 78.91L135.97 89.1L135.97 99.28L135.97 110.4L135.97 120.58L135.97 130.77L135.97 140.95L135.97 151.14" id="fnVNlYsgn"></path><path d="M126.71 77.99L126.71 88.17L126.71 98.36L127.63 108.54L127.63 118.73L127.63 128.91L126.71 139.1L126.71 149.28L136.89 151.14" id="a39a9jeUcG"></path><path d="M101.8 78.91L111.99 78.91" id="d21l8gxZQv"></path><path d="M111.52 78.91L111.52 89.1L111.52 99.28L111.52 110.4L111.52 120.58L111.52 130.77L111.52 140.95L111.52 151.14" id="a16OUp72sP"></path><path d="M102.26 77.99L102.26 88.17L102.26 98.36L103.19 108.54L103.19 118.73L103.19 128.91L102.26 139.1L102.26 149.28L112.45 151.14" id="beYvZc5F2"></path><path d="M73.79 228.41L74.63 238.41" id="a1HeSeD1W7"></path><path d="M74.63 229.24L84.63 230.08L97.13 230.08L109.63 230.08L120.46 230.08L131.29 230.08L141.29 230.91L152.96 230.91L162.96 231.74" id="b7TZz5eUnT"></path><path d="M74.63 237.16L84.63 237.99L97.13 237.99L109.63 237.99L120.46 237.99L131.29 237.99L141.29 238.83L152.96 238.83L162.96 239.66" id="cCwTMlV4v"></path><path d="M162.96 238.41L162.96 231.74" id="acEC35fKn"></path></defs><g><g><g><g><use xlink:href="#b3gC7SecjN" opacity="1" fill-opacity="0" stroke="#000000" stroke-width="3" stroke-opacity="1"></use></g></g><g><g><use xlink:href="#dwF9YuYv0" opacity="1" fill-opacity="0" stroke="#000000" stroke-width="3" stroke-opacity="1"></use></g></g><g><g><use xlink:href="#b798M0Vaf" opacity="1" fill-opacity="0" stroke="#000000" stroke-width="3" stroke-opacity="1"></use></g></g><g><g><use xlink:href="#k2pwMSbwN" opacity="1" fill-opacity="0" stroke="#000000" stroke-width="3" stroke-opacity="1"></use></g></g><g><g><use xlink:href="#ebqyDi9ab" opacity="1" fill-opacity="0" stroke="#000000" stroke-width="3" stroke-opacity="1"></use></g></g><g><g><use xlink:href="#auhtw5cr4" opacity="1" fill-opacity="0" stroke="#000000" stroke-width="3" stroke-opacity="1"></use></g></g><g><g><use xlink:href="#b4D3O2ybZy" opacity="1" fill-opacity="0" stroke="#000000" stroke-width="3" stroke-opacity="1"></use></g></g><g><g><use xlink:href="#fnVNlYsgn" opacity="1" fill-opacity="0" stroke="#000000" stroke-width="3" stroke-opacity="1"></use></g></g><g><g><use xlink:href="#a39a9jeUcG" opacity="1" fill-opacity="0" stroke="#000000" stroke-width="3" stroke-opacity="1"></use></g></g><g><g><use xlink:href="#d21l8gxZQv" opacity="1" fill-opacity="0" stroke="#000000" stroke-width="3" stroke-opacity="1"></use></g></g><g><g><use xlink:href="#a16OUp72sP" opacity="1" fill-opacity="0" stroke="#000000" stroke-width="3" stroke-opacity="1"></use></g></g><g><g><use xlink:href="#beYvZc5F2" opacity="1" fill-opacity="0" stroke="#000000" stroke-width="3" stroke-opacity="1"></use></g></g><g><g><use xlink:href="#a1HeSeD1W7" opacity="1" fill-opacity="0" stroke="#000000" stroke-width="3" stroke-opacity="1"></use></g></g><g><g><use xlink:href="#b7TZz5eUnT" opacity="1" fill-opacity="0" stroke="#000000" stroke-width="3" stroke-opacity="1"></use></g></g><g><g><use xlink:href="#cCwTMlV4v" opacity="1" fill-opacity="0" stroke="#000000" stroke-width="3" stroke-opacity="1"></use></g></g><g><g><use xlink:href="#acEC35fKn" opacity="1" fill-opacity="0" stroke="#000000" stroke-width="3" stroke-opacity="1"></use></g></g></g></g></svg>