<?xml version="1.0" encoding="UTF-8" standalone="no"?>
<!DOCTYPE svg PUBLIC "-//W3C//DTD SVG 1.1//EN" "http://www.w3.org/Graphics/SVG/1.1/DTD/svg11.dtd">
<svg version="1.1" xmlns="http://www.w3.org/2000/svg" xmlns:xlink="http://www.w3.org/1999/xlink" preserveAspectRatio="xMidYMid meet" viewBox="0 0 640 640" width="640" height="640"><defs><path d="M417.03 187.33L417.03 199.21L417.03 210.1L417.03 220.99L417.03 232.87L417.03 243.76L416.04 255.64L416.04 267.52L416.04 280.4L415.05 292.28L415.05 304.16L415.05 315.05L415.05 325.94L415.05 337.82L415.05 348.71L416.04 359.6L416.04 370.5L416.04 383.37L416.04 394.26L415.05 405.15L415.05 416.04L415.05 426.93L414.06 437.82L413.07 449.7L413.07 460.59L414.06 471.49L416.04 481.39" id="b7rBpbb7g"></path><path d="M210.1 187.33L210.1 199.21L210.1 210.1L210.1 220.99L210.1 232.87L210.1 243.76L209.11 255.64L209.11 267.52L209.11 280.4L208.12 292.28L208.12 304.16L208.12 315.05L208.12 325.94L208.12 337.82L208.12 348.71L209.11 359.6L209.11 370.5L209.11 383.37L209.11 394.26L208.12 405.15L208.12 416.04L208.12 426.93L207.13 437.82L206.14 449.7L206.14 460.59L207.13 471.49L209.11 481.39" id="a1QvJ7VNap"></path><path d="M208.25 188.32L220.13 188.32L231.02 189.31L243.89 189.31L255.77 190.3L268.64 190.3L279.54 189.31L291.42 189.31L302.31 188.32L313.2 187.33L326.07 187.33L337.95 187.33L349.83 188.32L361.71 190.3L372.6 191.29L383.5 191.29L394.39 190.3L406.27 189.31L417.16 188.32" id="b7QSpQ1YCq"></path><path d="M207.86 482.38L219.75 482.38L230.64 483.37L243.52 483.37L255.4 484.36L268.28 484.36L279.17 483.37L291.06 483.37L301.95 482.38L312.85 481.39L325.72 481.39L337.61 481.39L349.5 482.38L361.38 484.36L372.28 485.35L383.17 485.35L394.07 484.36L405.95 483.37L416.85 482.38" id="a1yp4D8Y8U"></path><path d="M210.1 397.93L230.5 397.93L250.9 397.93L271.3 397.93L292.9 397.93L314.5 398.59L334.9 399.25L355.31 399.91L374.51 401.89L394.91 401.23L415.31 401.23" id="byhzqyDBP"></path><path d="M312.25 396.92L312.25 386.73L313.17 375.62L313.17 364.51L314.1 354.33L315.02 344.14L315.02 333.03L315.02 322.84L315.02 312.66L315.02 302.47L315.02 292.29L315.02 282.1L314.1 271.92L314.1 260.81L315.02 250.62L315.02 240.44L315.02 230.25L315.02 219.14L315.02 208.95L315.02 198.77L314.1 188.58" id="e4mRxSHV8l"></path><path d="M322.89 255.25L333.08 255.25" id="c1cJAlLjdK"></path><path d="M332.62 255.25L332.62 265.44L332.62 275.62L332.62 286.73L332.62 296.92L332.62 307.1L332.62 317.29L332.62 327.47" id="a17jfW9T6q"></path><path d="M323.36 254.33L323.36 264.51L323.36 274.7L324.28 284.88L324.28 295.07L324.28 305.25L323.36 315.44L323.36 325.62L333.54 327.47" id="e3UYfTvWMv"></path><path d="M298.45 255.25L308.63 255.25" id="b8fbdPVsTh"></path><path d="M308.17 255.25L308.17 265.44L308.17 275.62L308.17 286.73L308.17 296.92L308.17 307.1L308.17 317.29L308.17 327.47" id="bzzuwL8AO"></path><path d="M298.91 254.33L298.91 264.51L298.91 274.7L299.84 284.88L299.84 295.07L299.84 305.25L298.91 315.44L298.91 325.62L309.1 327.47" id="b1fLZRect"></path><path d="M270.44 404.75L271.27 414.75" id="a4LS0ZR8x"></path><path d="M271.27 405.58L281.27 406.41L293.77 406.41L306.27 406.41L317.11 406.41L327.94 406.41L337.94 407.25L349.61 407.25L359.61 408.08" id="e1XrexWVlO"></path><path d="M271.27 413.5L281.27 414.33L293.77 414.33L306.27 414.33L317.11 414.33L327.94 414.33L337.94 415.16L349.61 415.16L359.61 416" id="aIFm7v5Ad"></path><path d="M359.61 414.75L359.61 408.08" id="e6rirhuxq"></path></defs><g><g><g><g><use xlink:href="#b7rBpbb7g" opacity="1" fill-opacity="0" stroke="#000000" stroke-width="3" stroke-opacity="1"></use></g></g><g><g><use xlink:href="#a1QvJ7VNap" opacity="1" fill-opacity="0" stroke="#000000" stroke-width="3" stroke-opacity="1"></use></g></g><g><g><use xlink:href="#b7QSpQ1YCq" opacity="1" fill-opacity="0" stroke="#000000" stroke-width="3" stroke-opacity="1"></use></g></g><g><g><use xlink:href="#a1yp4D8Y8U" opacity="1" fill-opacity="0" stroke="#000000" stroke-width="3" stroke-opacity="1"></use></g></g><g><g><use xlink:href="#byhzqyDBP" opacity="1" fill-opacity="0" stroke="#000000" stroke-width="3" stroke-opacity="1"></use></g></g><g><g><use xlink:href="#e4mRxSHV8l" opacity="1" fill-opacity="0" stroke="#000000" stroke-width="3" stroke-opacity="1"></use></g></g><g><g><use xlink:href="#c1cJAlLjdK" opacity="1" fill-opacity="0" stroke="#000000" stroke-width="3" stroke-opacity="1"></use></g></g><g><g><use xlink:href="#a17jfW9T6q" opacity="1" fill-opacity="0" stroke="#000000" stroke-width="3" stroke-opacity="1"></use></g></g><g><g><use xlink:href="#e3UYfTvWMv" opacity="1" fill-opacity="0" stroke="#000000" stroke-width="3" stroke-opacity="1"></use></g></g><g><g><use xlink:href="#b8fbdPVsTh" opacity="1" fill-opacity="0" stroke="#000000" stroke-width="3" stroke-opacity="1"></use></g></g><g><g><use xlink:href="#bzzuwL8AO" opacity="1" fill-opacity="0" stroke="#000000" stroke-width="3" stroke-opacity="1"></use></g></g><g><g><use xlink:href="#b1fLZRect" opacity="1" fill-opacity="0" stroke="#000000" stroke-width="3" stroke-opacity="1"></use></g></g><g><g><use xlink:href="#a4LS0ZR8x" opacity="1" fill-opacity="0" stroke="#000000" stroke-width="3" stroke-opacity="1"></use></g></g><g><g><use xlink:href="#e1XrexWVlO" opacity="1" fill-opacity="0" stroke="#000000" stroke-width="3" stroke-opacity="1"></use></g></g><g><g><use xlink:href="#aIFm7v5Ad" opacity="1" fill-opacity="0" stroke="#000000" stroke-width="3" stroke-opacity="1"></use></g></g><g><g><use xlink:href="#e6rirhuxq" opacity="1" fill-opacity="0" stroke="#000000" stroke-width="3" stroke-opacity="1"></use></g></g></g></g></svg>